<svg width="126" height="119" viewBox="0 0 126 119" fill="none" xmlns="http://www.w3.org/2000/svg">
<path d="M59.5739 116.401C91.2027 116.401 116.843 90.8594 116.843 59.3528C116.843 27.8461 91.2027 2.30495 59.5739 2.30495C27.9451 2.30495 2.30493 27.8461 2.30493 59.3528C2.30493 90.8594 27.9451 116.401 59.5739 116.401Z" stroke="#F6C46D" stroke-opacity="0.39" stroke-width="4.60989"/>
<path d="M71.123 90.0355C66.4649 92.3859 61.7428 92.7705 56.9566 91.1893C51.8712 89.5654 47.491 86.1039 43.8158 80.8049C41.8501 77.9844 40.1621 74.7153 38.7518 70.9974L36.7006 65.5488H21.5727L18.1753 73.6256C17.9617 74.1811 17.8548 74.6298 17.8548 74.9717C17.8548 75.3136 17.9189 75.6982 18.0471 76.1255C18.2181 76.5101 18.5386 76.8734 19.0086 77.2152C19.5215 77.5144 20.077 77.6639 20.6753 77.6639H21.1881V78.3049H7.47041V77.6639H8.04733C9.03021 77.6639 9.99173 77.3862 10.9319 76.8306C11.9148 76.2323 12.7267 75.3563 13.3677 74.2025L27.6623 41.5749C25.9957 37.8143 24.2222 35.2289 22.3419 33.8187C20.7607 32.6221 19.2437 32.0238 17.7907 32.0238C16.3805 32.0238 15.0557 32.2375 13.8164 32.6648L13.6882 32.0238C16.7651 30.4427 19.7138 29.6521 22.5342 29.6521C26.0384 29.6521 29.1794 31.0196 31.9571 33.7546C34.6921 36.4468 37.1066 40.3356 39.2005 45.421L48.4952 68.3693C51.9994 77.0443 55.5891 83.0057 59.2642 86.2535C60.7599 87.5783 62.2984 88.497 63.8795 89.0099C65.4607 89.5227 66.7855 89.7791 67.8538 89.7791C68.9649 89.7791 70.0333 89.6509 71.0589 89.3945L71.123 90.0355ZM22.6624 62.7924H35.7391L31.252 50.9337C31.0383 50.3354 30.7392 49.5235 30.3546 48.4979C29.97 47.4295 29.7136 46.6817 29.5854 46.2543L22.6624 62.7924ZM117.993 18.4344C119.959 17.9216 121.561 17.6651 122.801 17.6651C124.04 17.6651 125.023 17.7079 125.749 17.7933V18.4344C120.151 18.7335 115.664 21.2976 112.288 26.1265C110.536 28.6051 109.126 31.4897 108.057 34.7802L96.0063 72.3435C95.2798 74.6939 94.9166 76.8734 94.9166 78.8819C94.9166 79.0955 94.9166 79.2878 94.9166 79.4588H94.2755L80.3656 48.562L68.9555 75.6768C67.8017 78.4973 66.1137 81.2322 63.8915 83.8818C61.4984 86.7022 58.5925 88.5612 55.1738 89.4586C54.3618 89.715 53.5071 89.8432 52.6097 89.8432C51.7123 89.8432 50.7508 89.6936 49.7252 89.3945L49.7893 88.7535C51.3704 88.668 52.8875 88.2406 54.3405 87.4714C55.8362 86.7022 57.1395 85.7621 58.2506 84.651C59.3617 83.5826 60.4301 82.322 61.4557 80.869C63.1223 78.5186 64.5326 75.9546 65.6864 73.1768L52.6738 37.7929C52.1183 36.5537 51.3277 35.6349 50.3021 35.0366C49.2765 34.3956 48.2295 34.0751 47.1611 34.0751H46.6483V33.4341H66.1992V34.0751H65.6223C64.7249 34.0751 64.0411 34.3742 63.571 34.9725C63.1437 35.528 62.93 36.0622 62.93 36.575C62.93 37.0878 63.0155 37.5793 63.1864 38.0494L71.0709 60.2925L82.6732 32.4084L83.2501 32.4725L96.0063 60.613L103.378 34.7802C104.446 31.0623 106.134 27.7718 108.442 24.9086C111.134 21.5326 114.318 19.3745 117.993 18.4344Z" fill="#592B02"/>
</svg>
